<svg width="30" height="20" viewBox="0 0 30 20" fill="none" xmlns="http://www.w3.org/2000/svg">
    <path d="M10.3158 7.14286C9.92494 7.14286 9.55011 7.29337 9.27374 7.56128C8.99737 7.82919 8.8421 8.19255 8.8421 8.57143V11.4286C8.8421 11.8075 8.99737 12.1708 9.27374 12.4387C9.55011 12.7066 9.92494 12.8571 10.3158 12.8571C10.7066 12.8571 11.0815 12.7066 11.3578 12.4387C11.6342 12.1708 11.7895 11.8075 11.7895 11.4286V8.57143C11.7895 8.19255 11.6342 7.82919 11.3578 7.56128C11.0815 7.29337 10.7066 7.14286 10.3158 7.14286ZM28 8.57143C28.3908 8.57143 28.7657 8.42092 29.0421 8.15301C29.3184 7.8851 29.4737 7.52174 29.4737 7.14286V1.42857C29.4737 1.04969 29.3184 0.686328 29.0421 0.418419C28.7657 0.15051 28.3908 0 28 0H1.47368C1.08284 0 0.708001 0.15051 0.431632 0.418419C0.155263 0.686328 0 1.04969 0 1.42857V7.14286C0 7.52174 0.155263 7.8851 0.431632 8.15301C0.708001 8.42092 1.08284 8.57143 1.47368 8.57143C1.86453 8.57143 2.23937 8.72194 2.51574 8.98985C2.79211 9.25776 2.94737 9.62112 2.94737 10C2.94737 10.3789 2.79211 10.7422 2.51574 11.0102C2.23937 11.2781 1.86453 11.4286 1.47368 11.4286C1.08284 11.4286 0.708001 11.5791 0.431632 11.847C0.155263 12.1149 0 12.4783 0 12.8571V18.5714C0 18.9503 0.155263 19.3137 0.431632 19.5816C0.708001 19.8495 1.08284 20 1.47368 20H28C28.3908 20 28.7657 19.8495 29.0421 19.5816C29.3184 19.3137 29.4737 18.9503 29.4737 18.5714V12.8571C29.4737 12.4783 29.3184 12.1149 29.0421 11.847C28.7657 11.5791 28.3908 11.4286 28 11.4286C27.6092 11.4286 27.2343 11.2781 26.9579 11.0102C26.6816 10.7422 26.5263 10.3789 26.5263 10C26.5263 9.62112 26.6816 9.25776 26.9579 8.98985C27.2343 8.72194 27.6092 8.57143 28 8.57143ZM26.5263 5.97143C25.6728 6.27172 24.9354 6.81947 24.4143 7.54024C23.8932 8.261 23.6136 9.11983 23.6136 10C23.6136 10.8802 23.8932 11.739 24.4143 12.4598C24.9354 13.1805 25.6728 13.7283 26.5263 14.0286V17.1429H11.7895C11.7895 16.764 11.6342 16.4006 11.3578 16.1327C11.0815 15.8648 10.7066 15.7143 10.3158 15.7143C9.92494 15.7143 9.55011 15.8648 9.27374 16.1327C8.99737 16.4006 8.8421 16.764 8.8421 17.1429H2.94737V14.0286C3.80086 13.7283 4.53827 13.1805 5.05939 12.4598C5.58051 11.739 5.86007 10.8802 5.86007 10C5.86007 9.11983 5.58051 8.261 5.05939 7.54024C4.53827 6.81947 3.80086 6.27172 2.94737 5.97143V2.85714H8.8421C8.8421 3.23602 8.99737 3.59939 9.27374 3.8673C9.55011 4.1352 9.92494 4.28571 10.3158 4.28571C10.7066 4.28571 11.0815 4.1352 11.3578 3.8673C11.6342 3.59939 11.7895 3.23602 11.7895 2.85714H26.5263V5.97143Z" fill="url(#paint0_linear_155_1357)"/>
    <defs>
        <linearGradient id="paint0_linear_155_1357" x1="14.7368" y1="0" x2="14.7368" y2="20" gradientUnits="userSpaceOnUse">
            <stop stop-color="#9A299A"/>
            <stop offset="1" stop-color="#FD9E17"/>
        </linearGradient>
    </defs>
</svg>
