<svg width="22" height="23" viewBox="0 0 22 23" fill="none" xmlns="http://www.w3.org/2000/svg">
    <path d="M21.9243 11.7917C21.9243 17.8575 16.99 22.7917 10.9243 22.7917C5.38156 22.7917 0.687384 18.6532 0.00726991 13.1658C-0.0568444 12.6479 0.310241 12.1777 0.826927 12.1136C1.34487 12.0507 1.81504 12.4153 1.8779 12.9332C2.44236 17.4791 6.3307 20.906 10.9243 20.906C15.9504 20.906 20.0386 16.8178 20.0386 11.7917C20.0386 6.76569 15.9504 2.67746 10.9243 2.67746C8.84624 2.67746 6.87756 3.37266 5.2923 4.62603H6.47904C6.9995 4.62603 7.4219 5.04843 7.4219 5.56889C7.4219 6.08935 6.9995 6.51175 6.47904 6.51175H2.92384C2.40338 6.51175 1.98098 6.08935 1.98098 5.56889V2.01243C1.98098 1.49198 2.40338 1.06958 2.92384 1.06958C3.4443 1.06958 3.8667 1.49198 3.8667 2.01243V3.36889C5.82407 1.71826 8.29938 0.791748 10.9243 0.791748C16.99 0.791748 21.9243 5.72603 21.9243 11.7917ZM10.9997 5.82032C10.4793 5.82032 10.0569 6.24272 10.0569 6.76318V7.11141C8.55207 7.28112 7.39676 8.61998 7.55767 10.2015C7.70727 11.6736 9.0587 12.7346 10.5384 12.7346H11.6283C12.1488 12.7346 12.5712 13.1583 12.5712 13.6775C12.5712 14.1967 12.1488 14.6203 11.6283 14.6203H9.42956C8.9091 14.6203 8.4867 15.0427 8.4867 15.5632C8.4867 16.0836 8.9091 16.506 9.42956 16.506H10.0569V16.8203C10.0569 17.3408 10.4793 17.7632 10.9997 17.7632C11.5202 17.7632 11.9426 17.3408 11.9426 16.8203V16.4633C13.2224 16.2621 14.3085 15.2828 14.4418 13.9729C14.614 12.2808 13.2852 10.8489 11.6283 10.8489H10.3712C9.8507 10.8489 9.4283 10.4265 9.4283 9.90603C9.4283 9.38558 9.8507 8.96318 10.3712 8.96318H12.5762C13.0966 8.96318 13.519 8.54078 13.519 8.02032C13.519 7.49986 13.0966 7.07746 12.5762 7.07746H11.9426V6.76318C11.9426 6.24272 11.5202 5.82032 10.9997 5.82032Z" fill="url(#paint0_linear_155_1420)"/>
    <defs>
        <linearGradient id="paint0_linear_155_1420" x1="10.9621" y1="0.791748" x2="10.9621" y2="22.7917" gradientUnits="userSpaceOnUse">
            <stop stop-color="#9A299A"/>
            <stop offset="1" stop-color="#FD9E17"/>
        </linearGradient>
    </defs>
</svg>
