<svg width="30" height="21" viewBox="0 0 30 21" fill="none" xmlns="http://www.w3.org/2000/svg">
    <path d="M22.6577 13.2354C20.5726 13.2354 18.8762 14.9317 18.8762 17.0169C18.8762 19.1021 20.5726 20.7984 22.6577 20.7984C24.7433 20.7984 26.4393 19.1021 26.4393 17.0169C26.4393 14.9317 24.7429 13.2354 22.6577 13.2354ZM22.6577 18.9077C21.615 18.9077 20.767 18.0596 20.767 17.0169C20.767 15.9742 21.615 15.1261 22.6577 15.1261C23.7005 15.1261 24.5485 15.9742 24.5485 17.0169C24.5485 18.0597 23.7005 18.9077 22.6577 18.9077ZM9.73758 13.2354C7.6524 13.2354 5.95605 14.9317 5.95605 17.0169C5.95605 19.1021 7.6524 20.7984 9.73758 20.7984C11.8228 20.7984 13.5191 19.1021 13.5191 17.0169C13.5191 14.9317 11.8228 13.2354 9.73758 13.2354ZM9.73758 18.9077C8.69484 18.9077 7.84682 18.0596 7.84682 17.0169C7.84682 15.9742 8.69484 15.1261 9.73758 15.1261C10.78 15.1261 11.6283 15.9742 11.6283 17.0169C11.6283 18.0597 10.7803 18.9077 9.73758 18.9077ZM25.2043 2.41147C25.1255 2.25496 25.0048 2.1234 24.8556 2.03148C24.7064 1.93955 24.5346 1.89087 24.3594 1.89087H19.3804V3.78163H23.7764L26.3507 8.90179L28.0404 8.05218L25.2043 2.41147Z" fill="url(#paint0_linear_155_1424)"/>
    <path d="M12.6681 16.103H19.8214V17.9937H12.6681V16.103ZM6.90123 16.103H3.62396C3.10178 16.103 2.67861 16.5262 2.67861 17.0483C2.67861 17.5705 3.10184 17.9937 3.62396 17.9937H6.90129C7.42348 17.9937 7.84664 17.5705 7.84664 17.0483C7.84664 16.5261 7.42342 16.103 6.90123 16.103ZM29.8015 10.3235L27.942 7.92856C27.8537 7.81469 27.7405 7.72255 27.6111 7.65918C27.4817 7.59582 27.3395 7.56291 27.1954 7.56299H20.3256V0.945351C20.3256 0.423164 19.9024 0 19.3803 0H3.62396C3.10178 0 2.67861 0.423222 2.67861 0.945351C2.67861 1.46748 3.10184 1.8907 3.62396 1.8907H18.4349V8.50834C18.4349 9.03053 18.8581 9.45369 19.3802 9.45369H26.7325L28.1092 11.2272V16.1029H25.4937C24.9715 16.1029 24.5483 16.5261 24.5483 17.0482C24.5483 17.5704 24.9715 17.9936 25.4937 17.9936H29.0546C29.5768 17.9936 29.9999 17.5703 30 17.0482V10.9034C30 10.6935 29.93 10.4893 29.8015 10.3235ZM6.83824 11.313H2.48947C1.96729 11.313 1.54412 11.7363 1.54412 12.2584C1.54412 12.7806 1.96734 13.2038 2.48947 13.2038H6.83818C7.36037 13.2038 7.78354 12.7805 7.78354 12.2584C7.78359 11.7363 7.36037 11.313 6.83824 11.313ZM9.0126 7.59451H0.945352C0.423223 7.59451 0 8.01773 0 8.53992C0 9.06211 0.423223 9.48527 0.945352 9.48527H9.0126C9.53479 9.48527 9.95795 9.06205 9.95795 8.53992C9.95795 8.01779 9.53479 7.59451 9.0126 7.59451Z" fill="url(#paint1_linear_155_1424)"/>
    <path d="M10.5565 3.87598H2.4893C1.96711 3.87598 1.54395 4.2992 1.54395 4.82133C1.54395 5.34352 1.96717 5.76668 2.4893 5.76668H10.5565C11.0787 5.76668 11.5019 5.34346 11.5019 4.82133C11.502 4.2992 11.0787 3.87598 10.5565 3.87598Z" fill="url(#paint2_linear_155_1424)"/>
    <defs>
        <linearGradient id="paint0_linear_155_1424" x1="16.9982" y1="1.89087" x2="16.9982" y2="20.7984" gradientUnits="userSpaceOnUse">
            <stop stop-color="#9A299A"/>
            <stop offset="1" stop-color="#FD9E17"/>
        </linearGradient>
        <linearGradient id="paint1_linear_155_1424" x1="15" y1="0" x2="15" y2="17.9937" gradientUnits="userSpaceOnUse">
            <stop stop-color="#9A299A"/>
            <stop offset="1" stop-color="#FD9E17"/>
        </linearGradient>
        <linearGradient id="paint2_linear_155_1424" x1="6.52292" y1="3.87598" x2="6.52292" y2="5.76668" gradientUnits="userSpaceOnUse">
            <stop stop-color="#9A299A"/>
            <stop offset="1" stop-color="#FD9E17"/>
        </linearGradient>
    </defs>
</svg>
